<svg xmlns="http://www.w3.org/2000/svg" xmlns:xlink="http://www.w3.org/1999/xlink" viewBox="0 0 180.48 180.56693"><defs><style>.cls-1{fill:url(#linear-gradient);}.cls-2{fill:url(#linear-gradient-2);}.cls-3{fill:url(#linear-gradient-3);}.cls-4{fill:url(#linear-gradient-4);}.cls-5{fill:url(#linear-gradient-5);}.cls-6{fill:url(#linear-gradient-6);}.cls-7{fill:url(#linear-gradient-7);}.cls-8{fill:url(#linear-gradient-8);}.cls-9{fill:url(#linear-gradient-9);}.cls-10{fill:url(#linear-gradient-10);}.cls-11{fill:url(#linear-gradient-11);}.cls-12{fill:url(#Degradado_sin_nombre_105);}.cls-13{fill:none;clip-rule:evenodd;}.cls-14{isolation:isolate;}.cls-15{clip-path:url(#clip-path);}.cls-16,.cls-17,.cls-18{opacity:0.6;mix-blend-mode:multiply;}.cls-16{fill:url(#Degradado_sin_nombre_119);}.cls-17{fill:url(#Degradado_sin_nombre_119-2);}.cls-18{fill:url(#Degradado_sin_nombre_119-3);}.cls-19{clip-path:url(#clip-path-2);}.cls-20{fill:url(#linear-gradient-12);}.cls-21{mask:url(#mask);}.cls-22{fill:#5ef9f6;}.cls-22,.cls-30,.cls-35{fill-rule:evenodd;}.cls-23{mask:url(#mask-2);}.cls-24{clip-path:url(#clip-path-3);}.cls-25{fill:url(#linear-gradient-13);}.cls-26{clip-path:url(#clip-path-4);}.cls-27{fill:url(#linear-gradient-14);}.cls-28{mask:url(#mask-3);}.cls-29{mask:url(#mask-4);}.cls-30{fill:#51f4e9;}.cls-31{mask:url(#mask-5);}.cls-32{clip-path:url(#clip-path-5);}.cls-33{fill:url(#linear-gradient-15);}.cls-34{mask:url(#mask-6);}.cls-35{fill:#102770;}.cls-36{mask:url(#mask-7);}.cls-37{mask:url(#mask-8);}.cls-38{mask:url(#mask-9);}.cls-39{mask:url(#mask-10);}.cls-40{mask:url(#mask-11);}</style><linearGradient id="linear-gradient" x1="-4340.6924" y1="560.36049" x2="-4421.14889" y2="643.98497" gradientTransform="translate(4479.46 -537.9035)" gradientUnits="userSpaceOnUse"><stop offset="0" stop-color="#fff"/><stop offset="1"/></linearGradient><linearGradient id="linear-gradient-2" x1="-4488.18503" y1="700.64128" x2="-4527.06888" y2="745.23038" gradientTransform="translate(4606.7705 -662.4176)" xlink:href="#linear-gradient"/><linearGradient id="linear-gradient-3" x1="-4532.96438" y1="824.23972" x2="-4552.05877" y2="882.83879" gradientTransform="translate(4644.9604 -808.1549)" xlink:href="#linear-gradient"/><linearGradient id="linear-gradient-4" x1="-4733.83971" y1="463.19351" x2="-4780.37284" y2="476.38579" gradientTransform="translate(4873.3682 -358.158)" xlink:href="#linear-gradient"/><linearGradient id="linear-gradient-5" x1="-4608.32806" y1="523.75355" x2="-4666.17158" y2="450.55063" gradientTransform="translate(4754.8696 -358.158)" xlink:href="#linear-gradient"/><linearGradient id="linear-gradient-6" x1="-4642.09408" y1="529.11056" x2="-4700.65862" y2="454.99648" gradientTransform="translate(4785.062 -358.158)" xlink:href="#linear-gradient"/><linearGradient id="linear-gradient-7" x1="-4413.14268" y1="782.88013" x2="-4414.82797" y2="742.62495" gradientTransform="translate(4479.46 -695.8692)" xlink:href="#linear-gradient"/><linearGradient id="linear-gradient-8" x1="-4431.45816" y1="792.13661" x2="-4396.23939" y2="771.18065" gradientTransform="translate(4479.46 -695.8633)" xlink:href="#linear-gradient"/><linearGradient id="linear-gradient-9" x1="-4401.19663" y1="499.49695" x2="-4403.8597" y2="445.53317" gradientTransform="translate(4479.46 -358.158)" xlink:href="#linear-gradient"/><linearGradient id="linear-gradient-10" x1="-4603.98968" y1="485.0508" x2="-4609.00642" y2="550.63214" gradientTransform="translate(4694.8662 -419.9165)" xlink:href="#linear-gradient"/><linearGradient id="linear-gradient-11" x1="-4397.65316" y1="459.80326" x2="-4421.68482" y2="493.91844" gradientTransform="translate(4479.46 -358.158)" xlink:href="#linear-gradient"/><linearGradient id="Degradado_sin_nombre_105" x1="90.02047" y1="172.94315" x2="90.02047" y2="9.25856" gradientUnits="userSpaceOnUse"><stop offset="0" stop-color="#4479ff"/><stop offset="1" stop-color="#54ff93"/></linearGradient><clipPath id="clip-path"><path class="cls-12" d="M90.02056,6.58337a84.189,84.189,0,1,0,84.19567,84.189A84.19239,84.19239,0,0,0,90.02056,6.58337Zm0,157.53541a73.34643,73.34643,0,1,1,73.35233-73.34643A73.34943,73.34943,0,0,1,90.02056,164.11878Z"/></clipPath><linearGradient id="Degradado_sin_nombre_119" x1="58.41114" y1="47.10348" x2="122.93936" y2="23.75274" gradientUnits="userSpaceOnUse"><stop offset="0" stop-color="#54ff93" stop-opacity="0"/><stop offset="0.19294" stop-color="#4bd6a0" stop-opacity="0.24039"/><stop offset="0.47619" stop-color="#3ea0b2" stop-opacity="0.56369"/><stop offset="0.7149" stop-color="#3578bf" stop-opacity="0.80004"/><stop offset="0.89665" stop-color="#2f5fc7" stop-opacity="0.94559"/><stop offset="1" stop-color="#2d56ca"/></linearGradient><linearGradient id="Degradado_sin_nombre_119-2" x1="-4254.86175" y1="2587.76601" x2="-4190.49533" y2="2564.47382" gradientTransform="translate(-4286.73475 -2299.07093) rotate(-119.413)" xlink:href="#Degradado_sin_nombre_119"/><linearGradient id="Degradado_sin_nombre_119-3" x1="-4907.52383" y1="-1819.77814" x2="-4843.17386" y2="-1843.06437" gradientTransform="translate(-4531.5674 2423.74574) rotate(133.2373)" xlink:href="#Degradado_sin_nombre_119"/><clipPath id="clip-path-2"><polygon class="cls-13" points="76.527 76.39 97.743 45.429 118.253 45.429 91.47 83.283 80.949 98.161 80.949 98.161 76.527 104.414 76.527 134.683 61.863 134.683 61.863 88.114 67.033 82.855 76.527 76.39"/></clipPath><linearGradient id="linear-gradient-12" x1="49.10621" y1="129.19351" x2="149.36707" y2="33.37512" gradientUnits="userSpaceOnUse"><stop offset="0" stop-color="#102770"/><stop offset="1" stop-color="#37dacf"/></linearGradient><mask id="mask" x="61.86303" y="45.42901" width="46.13508" height="65.96971" maskUnits="userSpaceOnUse"><rect class="cls-1" x="61.86303" y="45.42901" width="46.13508" height="65.96971"/></mask><mask id="mask-2" x="73.14329" y="45.429" width="34.85486" height="49.83983" maskUnits="userSpaceOnUse"><rect class="cls-2" x="73.14329" y="45.429" width="34.85486" height="49.83983"/></mask><clipPath id="clip-path-3"><path class="cls-13" d="M76.52708,104.41433s-14.02185,19.27423-14.664,30.26913h14.664Z"/></clipPath><linearGradient id="linear-gradient-13" x1="66.88822" y1="116.46454" x2="81.77394" y2="136.36748" gradientUnits="userSpaceOnUse"><stop offset="0" stop-color="#102770"/><stop offset="1" stop-color="#267a9e"/></linearGradient><clipPath id="clip-path-4"><polygon class="cls-13" points="91.47 83.283 80.949 98.161 98.567 134.683 117.349 134.683 91.47 83.283"/></clipPath><linearGradient id="linear-gradient-14" x1="74.33054" y1="95.20104" x2="153.42351" y2="139.12206" xlink:href="#linear-gradient-12"/><mask id="mask-3" x="96.765" y="93.79897" width="20.58437" height="40.8845" maskUnits="userSpaceOnUse"><rect class="cls-4" x="96.765" y="93.79898" width="20.58437" height="40.88448"/></mask><mask id="mask-4" x="86.26551" y="83.2826" width="31.08385" height="51.40086" maskUnits="userSpaceOnUse"><rect class="cls-5" x="86.26551" y="83.28262" width="31.08385" height="51.40085"/></mask><mask id="mask-5" x="88.94069" y="96.07389" width="20.2261" height="38.60957" maskUnits="userSpaceOnUse"><rect class="cls-6" x="88.94069" y="96.07389" width="20.2261" height="38.60957"/></mask><clipPath id="clip-path-5"><path class="cls-13" d="M76.52708,76.3896V45.429H61.863V88.11407c0,10.05776,13.45271-9.86239,14.664-11.72447"/></clipPath><linearGradient id="linear-gradient-15" x1="79.10182" y1="94.29512" x2="49.21841" y2="26.44062" xlink:href="#linear-gradient-12"/><mask id="mask-6" x="61.86303" y="45.42901" width="7.33205" height="45.50639" maskUnits="userSpaceOnUse"><rect class="cls-7" x="61.86303" y="45.42901" width="7.33205" height="45.50639"/></mask><mask id="mask-7" x="61.86303" y="76.38959" width="14.66406" height="14.54658" maskUnits="userSpaceOnUse"><rect class="cls-8" x="61.86303" y="76.38959" width="14.66401" height="14.54658"/></mask><mask id="mask-8" x="61.86303" y="83.2826" width="29.60726" height="51.40086" maskUnits="userSpaceOnUse"><rect class="cls-9" x="61.86303" y="83.28262" width="29.60721" height="51.40085"/></mask><mask id="mask-9" x="80.94895" y="83.2826" width="13.75859" height="43.40049" maskUnits="userSpaceOnUse"><rect class="cls-10" x="80.94895" y="83.2826" width="13.75859" height="43.40049"/></mask><mask id="mask-10" x="61.86303" y="104.41433" width="14.66406" height="30.26914" maskUnits="userSpaceOnUse"><rect class="cls-11" x="61.86303" y="104.41433" width="14.66401" height="30.26914"/></mask><mask id="mask-11" x="76.52708" y="45.42901" width="41.72594" height="30.96059" maskUnits="userSpaceOnUse"><rect class="cls-3" x="76.52708" y="45.42901" width="41.72594" height="30.96059"/></mask></defs><title>Plan de travail 1</title><g class="cls-14"><g id="Calque_1" data-name="Calque 1"><path class="cls-12" d="M90.02056,6.58337a84.189,84.189,0,1,0,84.19567,84.189A84.19239,84.19239,0,0,0,90.02056,6.58337Zm0,157.53541a73.34643,73.34643,0,1,1,73.35233-73.34643A73.34943,73.34943,0,0,1,90.02056,164.11878Z"/><g class="cls-15"><path class="cls-16" d="M66.09319,1.57051S134.636-2.931,129.61454,64.09028A616.89329,616.89329,0,0,1,20.147,32.33027Z"/><path class="cls-17" d="M13.55957,152.11154S-24.03612,94.84891,37.04538,66.2943a610.57144,610.57144,0,0,1,25.9787,110.57882Z"/><path class="cls-18" d="M183.84123,131.93223s-43.65891,52.82261-89.24138,3.26955a615.70844,615.70844,0,0,1,98.21541-57.68143Z"/></g><g class="cls-19"><rect class="cls-20" x="61.86303" y="45.42901" width="56.38999" height="89.25445"/></g><g class="cls-21"><polygon class="cls-22" points="76.527 76.39 97.743 45.429 107.998 45.429 61.863 111.399 61.863 88.114 67.033 82.855 76.527 76.39"/></g><g class="cls-23"><polygon class="cls-22" points="106.341 45.429 107.998 45.429 73.143 95.269 106.341 45.429"/></g><g class="cls-24"><rect class="cls-25" x="61.86303" y="104.41433" width="14.66406" height="30.26914"/></g><g class="cls-26"><rect class="cls-27" x="80.94895" y="83.2826" width="36.40042" height="51.40086"/></g><g class="cls-28"><polygon class="cls-22" points="98.567 134.683 117.349 134.683 96.765 93.799 98.567 134.683"/></g><g class="cls-29"><polygon class="cls-30" points="91.47 83.283 86.266 90.643 107.958 134.683 117.349 134.683 91.47 83.283"/></g><g class="cls-31"><polygon class="cls-30" points="88.941 96.074 107.958 134.683 109.167 134.683 88.941 96.074 88.941 96.074"/></g><g class="cls-32"><rect class="cls-33" x="61.86303" y="45.42901" width="14.66406" height="52.74281"/></g><g class="cls-34"><path class="cls-35" d="M69.19508,45.429H61.863V88.11407c0,5.24528,3.65882,2.33633,7.33205-1.91158Z"/></g><g class="cls-36"><path class="cls-35" d="M62.66894,90.76752c.0199.013.0353.02292,0,0M76.52708,76.3896c-3.9836,4.38177-11.13464,8.39606-14.664.77V88.11407q0,.15571.00428.30189a3.9956,3.9956,0,0,0,.43679,1.97344C64.69525,94.1654,76.01666,77.174,76.52708,76.3896Z"/></g><g class="cls-37"><path class="cls-35" d="M64.29216,90.65324a3.33113,3.33113,0,0,1-.45964.18584,3.37687,3.37687,0,0,0,.45964-.18584M61.863,111.39873v23.28473c.6422-10.9949,14.664-30.26913,14.664-30.26913L80.949,98.161l5.31652-7.51819,5.20477-7.36017c-10.14485,12.563-15.66951,14.31657-18.678,12.48812-3.59289-2.18368-3.5973-9.476-3.59721-9.56734-1.98279,2.293-3.96133,4.19554-5.36247,4.63612a1.19818,1.19818,0,0,1-1.52851-.4501,3.503,3.503,0,0,1-.41754-1.59386l-.00035-.005q-.01317-.179-.0189-.37454-.00429-.14619-.00428-.30189Z"/></g><g class="cls-38"><path class="cls-35" d="M91.47028,83.2826l-5.20477,7.36015L80.949,98.16088,94.70754,126.6831c-3.95877-11.44558-8.35325-31.85688-3.23726-43.4005"/></g><g class="cls-39"><path class="cls-35" d="M61.863,134.68346s7.5565-14.4463,14.664-14.0233V104.41433s-14.02185,19.27423-14.664,30.26913"/></g><g class="cls-40"><polygon class="cls-22" points="76.527 76.39 118.253 45.429 97.743 45.429 76.527 76.39"/></g></g></g></svg>